<svg width="121" height="120" fill="none" xmlns="http://www.w3.org/2000/svg"><circle cx="60.5" cy="60" r="59" stroke="url(#so3pyv6kwa)" stroke-width="2"/><mask id="a" style="mask-type:alpha" maskUnits="userSpaceOnUse" x="0" y="0" width="121" height="120"><circle cx="60.5" cy="60" r="60" fill="url(#pvg0al20kb)"/></mask><g mask="url(#a)"><circle cx="61" cy="60" r="62" fill="url(#jmsa29mbgd)"/><path fill-rule="evenodd" clip-rule="evenodd" d="M116.831 133.401c-2.342 3.539-4.12 7.901-8.879 7.901-8.01 0-8.443-12.351-16.457-12.351-8.014 0-7.581 12.349-15.587 12.349s-8.443-12.351-16.457-12.351c-8.014 0-7.581 12.351-15.591 12.351-8.01 0-8.444-12.351-16.457-12.351-8.014 0-7.582 12.351-15.591 12.351a7.48 7.48 0 01-5.778-2.893A68.404 68.404 0 01-3 104.247C-3 67.659 25.264 38 60.13 38c34.864 0 63.127 29.66 63.127 66.247a68.683 68.683 0 01-6.426 29.154z" fill="#FB70A9"/><path d="M34.922 126.242v25.949a8.681 8.681 0 01-8.918 8.431 8.683 8.683 0 01-8.917-8.431v-31.326c1.664-2.888 3.565-5.389 6.992-5.389 5.573 0 7.529 6.627 10.843 10.766zm33.682 1.351v41.034a9.65 9.65 0 01-9.907 9.369 9.648 9.648 0 01-9.907-9.369v-46.442c1.864-3.4 3.786-6.709 7.727-6.709 6.239 0 7.94 8.292 12.084 12.118l.003-.001zm31.701-.753v29.791a8.933 8.933 0 01-15.066 6.011 8.931 8.931 0 01-2.77-6.011v-36.616c1.553-2.513 3.401-4.539 6.487-4.539 5.857 0 7.714 7.304 11.346 11.366l.003-.002z" fill="url(#2zf5guawte)"/><path opacity=".217" d="M34.922 126.242v25.949a8.681 8.681 0 01-8.918 8.431 8.683 8.683 0 01-8.917-8.431v-31.326c1.664-2.888 3.565-5.389 6.992-5.389 5.573 0 7.529 6.627 10.843 10.766zm33.682 1.351v41.034a9.65 9.65 0 01-9.907 9.369 9.648 9.648 0 01-9.907-9.369v-46.442c1.864-3.4 3.786-6.709 7.727-6.709 6.239 0 7.94 8.292 12.084 12.118l.003-.001zm31.701-.753v29.791a8.933 8.933 0 01-15.066 6.011 8.931 8.931 0 01-2.77-6.011v-36.616c1.553-2.513 3.401-4.539 6.487-4.539 5.857 0 7.714 7.304 11.346 11.366l.003-.002z" fill="url(#pg8wqki89f)"/><path opacity=".49" d="M34.922 135.27a7.764 7.764 0 00-6.161-3.378c-6.43 0-7.61 8.107-11.67 11.755v-34.945a8.92 8.92 0 018.917-8.918 8.919 8.919 0 018.918 8.918l-.004 26.568zm33.682.626c-1.69-2.239-3.662-3.996-6.659-3.996-7.153 0-7.808 10.03-13.163 12.802v-15.459a9.908 9.908 0 1119.814 0l.008 6.653zm31.701-1.735a7.112 7.112 0 00-2.347-1.665 7.12 7.12 0 00-2.815-.596c-6.929 0-7.76 9.412-12.674 12.521v-31.375a8.91 8.91 0 012.612-6.306 8.915 8.915 0 019.718-1.933 8.915 8.915 0 015.506 8.239v21.115z" fill="#000" fill-opacity=".3"/><path fill-rule="evenodd" clip-rule="evenodd" d="M116.831 133.401c-2.342 3.539-4.12 7.901-8.879 7.901-8.01 0-8.443-12.351-16.457-12.351-8.014 0-7.581 12.349-15.587 12.349s-8.443-12.351-16.457-12.351c-8.014 0-7.581 12.351-15.591 12.351-8.01 0-8.444-12.351-16.457-12.351-8.014 0-7.582 12.351-15.591 12.351a7.48 7.48 0 01-5.778-2.893A68.404 68.404 0 01-3 104.247C-3 67.659 25.264 38 60.13 38c34.864 0 63.127 29.66 63.127 66.247a68.683 68.683 0 01-6.426 29.154z" fill="url(#gr8bxf848g)"/><path opacity=".729" fill-rule="evenodd" clip-rule="evenodd" d="M116.831 133.401c-2.342 3.539-4.12 7.901-8.879 7.901-8.01 0-8.443-12.351-16.457-12.351-8.014 0-7.581 12.349-15.587 12.349s-8.443-12.351-16.457-12.351c-8.014 0-7.581 12.351-15.591 12.351-8.01 0-8.444-12.351-16.457-12.351-8.014 0-7.582 12.351-15.591 12.351a7.48 7.48 0 01-5.778-2.893A68.404 68.404 0 01-3 104.247C-3 67.659 25.264 38 60.13 38c34.864 0 63.127 29.66 63.127 66.247a68.683 68.683 0 01-6.426 29.154z" fill="url(#yagga0rfxh)"/><path opacity=".383" fill-rule="evenodd" clip-rule="evenodd" d="M116.831 133.401c-2.342 3.539-4.12 7.901-8.879 7.901-8.01 0-8.443-12.351-16.457-12.351-8.014 0-7.581 12.349-15.587 12.349s-8.443-12.351-16.457-12.351c-8.014 0-7.581 12.351-15.591 12.351-8.01 0-8.444-12.351-16.457-12.351-8.014 0-7.582 12.351-15.591 12.351a7.48 7.48 0 01-5.778-2.893A68.404 68.404 0 01-3 104.247C-3 67.659 25.264 38 60.13 38c34.864 0 63.127 29.66 63.127 66.247a68.683 68.683 0 01-6.426 29.154z" fill="url(#euvifejaqi)"/><path opacity=".176" fill-rule="evenodd" clip-rule="evenodd" d="M103.441 139.696c16.547-24.604 17.467-51.757 1.779-81.745 11.628 11.913 18.037 28.396 18.037 46.434a68.161 68.161 0 01-6.486 29.237c-3.398 4.975-4.295 7.688-9.228 7.688a6.993 6.993 0 01-4.102-1.614z" fill="url(#k8mxvx3vbj)"/><path fill-rule="evenodd" clip-rule="evenodd" d="M56.743 120.773c21.952 0 31.197-12.736 31.197-30.82 0-18.086-13.967-34.736-31.197-34.736-17.23 0-31.196 16.648-31.196 34.734 0 18.085 9.244 30.822 31.196 30.822z" fill="#fff" style="mix-blend-mode:overlay" opacity=".308"/><path d="M48.356 90.975c6.461 0 11.699-5.781 11.699-12.913 0-7.132-5.238-12.913-11.699-12.913-6.46 0-11.698 5.781-11.698 12.913 0 7.132 5.238 12.913 11.698 12.913z" fill="url(#j1cbuz6k6k)"/><path opacity=".383" d="M48.356 90.975c6.461 0 11.699-5.781 11.699-12.913 0-7.132-5.238-12.913-11.699-12.913-6.46 0-11.698 5.781-11.698 12.913 0 7.132 5.238 12.913 11.698 12.913z" fill="url(#jckjhx8sel)"/><path d="M46.407 81.043c3.23 0 5.849-2.669 5.849-5.96 0-3.292-2.619-5.96-5.85-5.96-3.23 0-5.848 2.668-5.848 5.96 0 3.291 2.618 5.96 5.849 5.96z" fill="url(#jhu778svfm)"/><path opacity=".146" d="M42.379 89.164a12.474 12.474 0 01-4.145-4.625 13.946 13.946 0 01-1.576-6.476c0-7.12 5.248-12.913 11.698-12.913a10.91 10.91 0 017.305 2.825 13.193 13.193 0 014.078 7.093 10.863 10.863 0 00-5.976-1.81c-6.452 0-11.7 5.792-11.7 12.91 0 1.006.105 2.01.316 2.992v.004z" fill="#fff"/><ellipse cx="62.69" cy="60.898" rx="45" ry="17" transform="rotate(7.118 62.69 60.898)" fill="#000" fill-opacity=".12"/><path d="M117.811 55.285c-1.71 13.693-26.38 16.86-55.864 13.179-29.484-3.682-53.064-12.471-50.784-30.73 1.479-11.837 26.455-14.231 55.939-10.55 29.484 3.682 53.261 7.66 50.709 28.1z" fill="url(#62wqm85b5n)"/><path d="M117.811 55.285c-1.71 13.693-26.38 16.86-55.864 13.179-29.484-3.682-53.064-12.471-50.784-30.73 1.479-11.837 26.455-14.231 55.939-10.55 29.484 3.682 53.261 7.66 50.709 28.1z" fill="url(#atf9f148fo)"/><path opacity=".383" d="M117.811 55.285c-1.71 13.693-26.38 16.86-55.864 13.179-29.484-3.682-53.064-12.471-50.784-30.73 1.479-11.837 26.455-14.231 55.939-10.55 29.484 3.682 53.261 7.66 50.709 28.1z" fill="url(#79jvdtmvpp)"/><path d="M118.306 51.315c-1.478 11.838-26.38 16.862-55.863 13.18-29.484-3.682-52.386-14.675-50.907-26.513 1.478-11.837 26.578-18.448 56.061-14.767 29.484 3.682 52.187 16.263 50.709 28.1z" fill="url(#t6epckzwqq)"/><path opacity=".729" d="M118.306 51.315c-1.478 11.838-26.38 16.862-55.863 13.18-29.484-3.682-52.386-14.675-50.907-26.513 1.478-11.837 26.578-18.448 56.061-14.767 29.484 3.682 52.187 16.263 50.709 28.1z" fill="url(#ozg97pvugr)"/><path opacity=".383" d="M118.306 51.315c-1.478 11.838-26.38 16.862-55.863 13.18-29.484-3.682-52.386-14.675-50.907-26.513 1.478-11.837 26.578-18.448 56.061-14.767 29.484 3.682 52.187 16.263 50.709 28.1z" fill="url(#tt9ydef1xs)"/><mask id="b" style="mask-type:alpha" maskUnits="userSpaceOnUse" x="31" y="-40" width="75" height="95"><path d="M36.532-39.518l69.262 8.65-11.898 77.523S86.753 57.05 61.35 53.877C35.947 50.706 31.778 40.51 31.778 40.51l4.754-80.028z" fill="#C4C4C4"/></mask><g mask="url(#b)"><path transform="rotate(7.118 35.39 -43.288)" fill="url(#oqsmzc5eou)" d="M35.39-43.288h71.6v94h-71.6z"/><path opacity=".729" transform="rotate(7.118 35.39 -43.288)" fill="url(#ojer4mablv)" d="M35.39-43.288h71.6v94h-71.6z"/><path opacity=".383" transform="rotate(7.118 35.39 -43.288)" fill="url(#03yn6yf5rw)" d="M35.39-43.288h71.6v94h-71.6z"/><path d="M30.289 33.068c23.986 14.874 38.48 16.662 66.285 8.278l-2.082 16.67-66.285-8.277 2.082-16.67z" fill="#1A283E"/><path opacity=".383" d="M30.289 33.068c23.986 14.874 38.48 16.662 66.285 8.278l-2.082 16.67-66.285-8.277 2.082-16.67z" fill="url(#okdobntujx)"/></g></g><path d="M98 69l4.122 16.07L70 112 25.5 95" stroke="url(#xgzh0f4xry)" stroke-width="2" stroke-miterlimit="10" stroke-linejoin="round"/><path d="M73.54 112.6a3.538 3.538 0 10-6.988-1.106 3.538 3.538 0 006.988 1.106z" fill="url(#59f1r9g2cz)"/><path fill-rule="evenodd" clip-rule="evenodd" d="M73.512 112.767a3.362 3.362 0 00-.908-2.872 3.358 3.358 0 01-.106 3.334 3.37 3.37 0 01-5.29.585 3.357 3.357 0 002.45 1.752 3.366 3.366 0 003.854-2.799z" fill="#fff" fill-opacity=".2"/><path d="M28.42 94.515a3.5 3.5 0 10-6.913-1.1 3.5 3.5 0 006.912 1.1z" fill="url(#ukzxkoczuA)"/><path fill-rule="evenodd" clip-rule="evenodd" d="M28.392 94.675a3.326 3.326 0 00-.894-2.843 3.333 3.333 0 01-5.346 3.873 3.327 3.327 0 002.427 1.737 3.333 3.333 0 003.813-2.767z" fill="#fff" fill-opacity=".2"/><path d="M103.975 85.876a2.81 2.81 0 10-5.552-.88 2.81 2.81 0 005.552.88z" fill="url(#vj7jznp7mB)"/><path fill-rule="evenodd" clip-rule="evenodd" d="M103.943 86.085c.064-.4.034-.81-.089-1.195a2.59 2.59 0 00-.615-1.029 2.603 2.603 0 01-4.168 3.03 2.6 2.6 0 002.909 1.316 2.595 2.595 0 001.963-2.122z" fill="#fff" fill-opacity=".2"/><defs><radialGradient id="pvg0al20kb" cx="0" cy="0" r="1" gradientUnits="userSpaceOnUse" gradientTransform="rotate(90 1.97 58.53) scale(60.6097)"><stop stop-color="#2B436F"/><stop offset="1"/></radialGradient><radialGradient id="pg8wqki89f" cx="0" cy="0" r="1" gradientUnits="userSpaceOnUse" gradientTransform="matrix(49.3491 7.0285 -7.45175 52.32081 58.875 217.667)"><stop stop-color="#FC41DF"/><stop offset="1" stop-color="#FD6DEC" stop-opacity="0"/></radialGradient><radialGradient id="gr8bxf848g" cx="0" cy="0" r="1" gradientUnits="userSpaceOnUse" gradientTransform="matrix(109.99514 228.88007 -146.12636 70.22538 -14.533 56.232)"><stop stop-color="#6BA0E2"/><stop offset=".305" stop-color="#54729A"/><stop offset=".526" stop-color="#2F4464"/><stop offset="1"/></radialGradient><radialGradient id="yagga0rfxh" cx="0" cy="0" r="1" gradientUnits="userSpaceOnUse" gradientTransform="matrix(74.8716 10.6638 -12.31194 86.44332 12.744 66.609)"><stop stop-color="#fff"/><stop offset="1" stop-color="#FD6DA4" stop-opacity="0"/></radialGradient><radialGradient id="euvifejaqi" cx="0" cy="0" r="1" gradientUnits="userSpaceOnUse" gradientTransform="matrix(75.6279 0 0 61.8777 16.444 56.078)"><stop stop-color="#FC41DF"/><stop offset="1" stop-color="#FD6DEC" stop-opacity=".01"/></radialGradient><radialGradient id="j1cbuz6k6k" cx="0" cy="0" r="1" gradientUnits="userSpaceOnUse" gradientTransform="rotate(45 -60.313 76.825) scale(30.018 24.4535)"><stop stop-color="#6BA0E2"/><stop offset="1" stop-color="#0A0F1A"/></radialGradient><radialGradient id="jckjhx8sel" cx="0" cy="0" r="1" gradientUnits="userSpaceOnUse" gradientTransform="rotate(38.051 -88.491 93.273) scale(16.0407 26.5664)"><stop stop-color="#FC41DF"/><stop offset="1" stop-color="#FD6D73" stop-opacity="0"/></radialGradient><radialGradient id="jhu778svfm" cx="0" cy="0" r="1" gradientUnits="userSpaceOnUse" gradientTransform="matrix(12.60714 41.93668 -44.06892 13.24814 39.436 73.114)"><stop stop-color="#fff"/><stop offset="1" stop-color="#C42E6C"/></radialGradient><radialGradient id="62wqm85b5n" cx="0" cy="0" r="1" gradientUnits="userSpaceOnUse" gradientTransform="matrix(10.80295 97.48998 -79.696 8.83118 47.403 12.228)"><stop stop-color="#6BA0E2"/><stop offset=".305" stop-color="#54729A"/><stop offset=".526" stop-color="#2F4464"/><stop offset="1"/></radialGradient><radialGradient id="atf9f148fo" cx="0" cy="0" r="1" gradientUnits="userSpaceOnUse" gradientTransform="matrix(104.49977 84.9998 -69.48574 85.42661 4 20)"><stop stop-color="#6BA0E2"/><stop offset="1"/></radialGradient><radialGradient id="79jvdtmvpp" cx="0" cy="0" r="1" gradientUnits="userSpaceOnUse" gradientTransform="matrix(85.92782 53.05643 -20.46294 33.14085 8.937 19.921)"><stop stop-color="#FC41DF"/><stop offset="1" stop-color="#FD6DEC" stop-opacity=".01"/></radialGradient><radialGradient id="t6epckzwqq" cx="0" cy="0" r="1" gradientUnits="userSpaceOnUse" gradientTransform="rotate(37.58 -31.462 16.524) scale(148.202 121.161)"><stop stop-color="#6BA0E2"/><stop offset=".305" stop-color="#54729A"/><stop offset=".526" stop-color="#2F4464"/><stop offset="1"/></radialGradient><radialGradient id="ozg97pvugr" cx="0" cy="0" r="1" gradientUnits="userSpaceOnUse" gradientTransform="matrix(37.71062 32.92663 -18.24522 20.8961 6.373 15.57)"><stop stop-color="#fff"/><stop offset="1" stop-color="#FD6DA4" stop-opacity="0"/></radialGradient><radialGradient id="tt9ydef1xs" cx="0" cy="0" r="1" gradientUnits="userSpaceOnUse" gradientTransform="matrix(85.5905 53.0144 -20.49626 33.09073 9.846 16.003)"><stop stop-color="#FC41DF"/><stop offset="1" stop-color="#FD6DEC" stop-opacity=".01"/></radialGradient><radialGradient id="oqsmzc5eou" cx="0" cy="0" r="1" gradientUnits="userSpaceOnUse" gradientTransform="matrix(62.37756 208.27046 -93.60948 28.0363 28.85 -26.698)"><stop stop-color="#6BA0E2"/><stop offset=".305" stop-color="#54729A"/><stop offset=".526" stop-color="#2F4464"/><stop offset="1"/></radialGradient><radialGradient id="ojer4mablv" cx="0" cy="0" r="1" gradientUnits="userSpaceOnUse" gradientTransform="matrix(56.7417 34.73663 -62.39897 101.92766 24.124 -41.59)"><stop stop-color="#fff"/><stop offset="1" stop-color="#FD6DA4" stop-opacity="0"/></radialGradient><radialGradient id="03yn6yf5rw" cx="0" cy="0" r="1" gradientUnits="userSpaceOnUse" gradientTransform="matrix(39.00002 32 -42.01115 51.20113 23.89 3.712)"><stop stop-color="#FC41DF"/><stop offset="1" stop-color="#FD6DEC" stop-opacity=".01"/></radialGradient><radialGradient id="okdobntujx" cx="0" cy="0" r="1" gradientUnits="userSpaceOnUse" gradientTransform="matrix(33.5 36.99996 -10.34378 9.36532 23 25.5)"><stop stop-color="#FC41DF"/><stop offset="1" stop-color="#FD6DEC" stop-opacity=".01"/></radialGradient><linearGradient id="so3pyv6kwa" x1="-24.727" y1="22.708" x2="4.538" y2="134.632" gradientUnits="userSpaceOnUse"><stop stop-color="#FF5E92"/><stop offset="1" stop-color="#ED4653"/></linearGradient><linearGradient id="jmsa29mbgd" x1="24.5" y1="2.5" x2="53.5" y2="72.5" gradientUnits="userSpaceOnUse"><stop stop-color="#B9437C"/><stop offset="1" stop-color="#1A2536"/></linearGradient><linearGradient id="2zf5guawte" x1="72.843" y1="192.943" x2="69.079" y2="103.162" gradientUnits="userSpaceOnUse"><stop stop-color="#6BA0E2"/><stop offset="1" stop-color="#0A0F1A"/></linearGradient><linearGradient id="k8mxvx3vbj" x1="90.124" y1="116.302" x2="140.63" y2="115.007" gradientUnits="userSpaceOnUse"><stop stop-color="#04060A"/><stop offset="1" stop-color="#111B30"/></linearGradient><linearGradient id="xgzh0f4xry" x1="94.5" y1="103" x2="110.5" y2="69" gradientUnits="userSpaceOnUse"><stop stop-color="#F44881"/><stop offset="1" stop-color="#F44881" stop-opacity="0"/></linearGradient><linearGradient id="59f1r9g2cz" x1="73.085" y1="110.773" x2="58.002" y2="128.582" gradientUnits="userSpaceOnUse"><stop stop-color="#DD1E5B"/><stop offset="1" stop-color="#EFC7D8"/></linearGradient><linearGradient id="ukzxkoczuA" x1="21.847" y1="91.278" x2="27.15" y2="97.857" gradientUnits="userSpaceOnUse"><stop stop-color="#FB3B78"/><stop offset="1" stop-color="#EFC7D8"/></linearGradient><linearGradient id="vj7jznp7mB" x1="103.613" y1="84.424" x2="91.626" y2="98.578" gradientUnits="userSpaceOnUse"><stop stop-color="#DD1E5B"/><stop offset="1" stop-color="#EFC7D8"/></linearGradient></defs></svg>